<svg xmlns="http://www.w3.org/2000/svg" xmlns:xlink="http://www.w3.org/1999/xlink" width="300" zoomAndPan="magnify" viewBox="0 0 224.87999 37.5" height="50" preserveAspectRatio="xMidYMid meet" version="1.0">
	<defs>
		<g />
		<clipPath id="62516dbe4c">
			<path d="M 69.507812 3.699219 L 155.351562 3.699219 L 155.351562 31.617188 L 69.507812 31.617188 Z M 69.507812 3.699219 " clip-rule="nonzero" />
		</clipPath>
	</defs>
	<g clip-path="url(#62516dbe4c)">
		<path stroke-linecap="butt" transform="matrix(0.740132, 0, 0, 0.740132, 69.506326, 3.700659)" fill="none" stroke-linejoin="miter" d="M 0.00200863 -0.00194557 L 116.007562 -0.00194557 L 116.007562 37.718331 L 0.00200863 37.718331 Z M 0.00200863 -0.00194557 " stroke="#ffffff" stroke-width="2" stroke-opacity="1" stroke-miterlimit="4" />
	</g>
	<g fill="#0052CC" fill-opacity="1">
		<g transform="translate(70.842258, 22.938736)">
			<g>
				<path d="M 0.53125 -5.734375 C 0.53125 -6.867188 0.773438 -7.878906 1.265625 -8.765625 C 1.753906 -9.648438 2.4375 -10.335938 3.3125 -10.828125 C 4.1875 -11.328125 5.179688 -11.578125 6.296875 -11.578125 C 7.648438 -11.578125 8.8125 -11.21875 9.78125 -10.5 C 10.75 -9.78125 11.398438 -8.800781 11.734375 -7.5625 L 8.65625 -7.5625 C 8.425781 -8.039062 8.101562 -8.40625 7.6875 -8.65625 C 7.269531 -8.90625 6.796875 -9.03125 6.265625 -9.03125 C 5.398438 -9.03125 4.703125 -8.734375 4.171875 -8.140625 C 3.640625 -7.546875 3.375 -6.742188 3.375 -5.734375 C 3.375 -4.734375 3.640625 -3.9375 4.171875 -3.34375 C 4.703125 -2.75 5.398438 -2.453125 6.265625 -2.453125 C 6.796875 -2.453125 7.269531 -2.578125 7.6875 -2.828125 C 8.101562 -3.078125 8.425781 -3.441406 8.65625 -3.921875 L 11.734375 -3.921875 C 11.398438 -2.679688 10.75 -1.703125 9.78125 -0.984375 C 8.8125 -0.273438 7.648438 0.078125 6.296875 0.078125 C 5.179688 0.078125 4.1875 -0.164062 3.3125 -0.65625 C 2.4375 -1.15625 1.753906 -1.84375 1.265625 -2.71875 C 0.773438 -3.601562 0.53125 -4.609375 0.53125 -5.734375 Z M 0.53125 -5.734375 " />
			</g>
		</g>
	</g>
	<g fill="#0052CC" fill-opacity="1">
		<g transform="translate(83.874653, 22.938736)">
			<g>
				<path d="M 6.421875 0.109375 C 5.347656 0.109375 4.363281 -0.140625 3.46875 -0.640625 C 2.570312 -1.140625 1.859375 -1.835938 1.328125 -2.734375 C 0.796875 -3.628906 0.53125 -4.640625 0.53125 -5.765625 C 0.53125 -6.878906 0.796875 -7.878906 1.328125 -8.765625 C 1.859375 -9.660156 2.570312 -10.359375 3.46875 -10.859375 C 4.363281 -11.359375 5.347656 -11.609375 6.421875 -11.609375 C 7.503906 -11.609375 8.492188 -11.359375 9.390625 -10.859375 C 10.285156 -10.359375 10.988281 -9.660156 11.5 -8.765625 C 12.019531 -7.878906 12.28125 -6.878906 12.28125 -5.765625 C 12.28125 -4.640625 12.019531 -3.628906 11.5 -2.734375 C 10.976562 -1.835938 10.269531 -1.140625 9.375 -0.640625 C 8.488281 -0.140625 7.503906 0.109375 6.421875 0.109375 Z M 6.421875 -2.4375 C 7.335938 -2.4375 8.066406 -2.738281 8.609375 -3.34375 C 9.160156 -3.945312 9.4375 -4.753906 9.4375 -5.765625 C 9.4375 -6.773438 9.160156 -7.582031 8.609375 -8.1875 C 8.066406 -8.789062 7.335938 -9.09375 6.421875 -9.09375 C 5.503906 -9.09375 4.769531 -8.789062 4.21875 -8.1875 C 3.664062 -7.59375 3.390625 -6.785156 3.390625 -5.765625 C 3.390625 -4.742188 3.664062 -3.929688 4.21875 -3.328125 C 4.769531 -2.734375 5.503906 -2.4375 6.421875 -2.4375 Z M 6.421875 -2.4375 " />
			</g>
		</g>
	</g>
	<g fill="#0052CC" fill-opacity="1">
		<g transform="translate(97.2985, 22.938736)">
			<g>
				<path d="M 5.296875 -11.453125 C 6.503906 -11.453125 7.554688 -11.210938 8.453125 -10.734375 C 9.359375 -10.253906 10.054688 -9.582031 10.546875 -8.71875 C 11.046875 -7.851562 11.296875 -6.851562 11.296875 -5.71875 C 11.296875 -4.601562 11.046875 -3.609375 10.546875 -2.734375 C 10.054688 -1.867188 9.359375 -1.195312 8.453125 -0.71875 C 7.546875 -0.238281 6.492188 0 5.296875 0 L 1.015625 0 L 1.015625 -11.453125 Z M 5.125 -2.421875 C 6.175781 -2.421875 6.992188 -2.707031 7.578125 -3.28125 C 8.171875 -3.851562 8.46875 -4.664062 8.46875 -5.71875 C 8.46875 -6.78125 8.171875 -7.601562 7.578125 -8.1875 C 6.992188 -8.769531 6.175781 -9.0625 5.125 -9.0625 L 3.796875 -9.0625 L 3.796875 -2.421875 Z M 5.125 -2.421875 " />
			</g>
		</g>
	</g>
	<g fill="#0052CC" fill-opacity="1">
		<g transform="translate(109.760016, 22.938736)">
			<g>
				<path d="M 3.796875 -9.21875 L 3.796875 -6.90625 L 7.53125 -6.90625 L 7.53125 -4.75 L 3.796875 -4.75 L 3.796875 -2.234375 L 8.03125 -2.234375 L 8.03125 0 L 1.015625 0 L 1.015625 -11.453125 L 8.03125 -11.453125 L 8.03125 -9.21875 Z M 3.796875 -9.21875 " />
			</g>
		</g>
	</g>
	<g fill="#ffffff" fill-opacity="1">
		<g transform="translate(119.187751, 22.938736)">
			<g>
				<path d="M 9.734375 -7.765625 C 9.734375 -7.097656 9.582031 -6.488281 9.28125 -5.9375 C 8.976562 -5.394531 8.507812 -4.953125 7.875 -4.609375 C 7.25 -4.273438 6.46875 -4.109375 5.53125 -4.109375 L 3.796875 -4.109375 L 3.796875 0 L 1.015625 0 L 1.015625 -11.453125 L 5.53125 -11.453125 C 6.445312 -11.453125 7.21875 -11.289062 7.84375 -10.96875 C 8.476562 -10.65625 8.953125 -10.222656 9.265625 -9.671875 C 9.578125 -9.117188 9.734375 -8.484375 9.734375 -7.765625 Z M 5.3125 -6.328125 C 5.851562 -6.328125 6.253906 -6.453125 6.515625 -6.703125 C 6.773438 -6.953125 6.90625 -7.304688 6.90625 -7.765625 C 6.90625 -8.222656 6.773438 -8.578125 6.515625 -8.828125 C 6.253906 -9.078125 5.851562 -9.203125 5.3125 -9.203125 L 3.796875 -9.203125 L 3.796875 -6.328125 Z M 5.3125 -6.328125 " />
			</g>
		</g>
	</g>
	<g fill="#ffffff" fill-opacity="1">
		<g transform="translate(129.969271, 22.938736)">
			<g>
				<path d="M 6.84375 0 L 4.46875 -4.328125 L 3.796875 -4.328125 L 3.796875 0 L 1.015625 0 L 1.015625 -11.453125 L 5.6875 -11.453125 C 6.59375 -11.453125 7.363281 -11.289062 8 -10.96875 C 8.632812 -10.65625 9.109375 -10.222656 9.421875 -9.671875 C 9.742188 -9.128906 9.90625 -8.519531 9.90625 -7.84375 C 9.90625 -7.082031 9.6875 -6.398438 9.25 -5.796875 C 8.820312 -5.203125 8.191406 -4.78125 7.359375 -4.53125 L 10 0 Z M 3.796875 -6.296875 L 5.53125 -6.296875 C 6.039062 -6.296875 6.421875 -6.421875 6.671875 -6.671875 C 6.929688 -6.921875 7.0625 -7.273438 7.0625 -7.734375 C 7.0625 -8.171875 6.929688 -8.515625 6.671875 -8.765625 C 6.421875 -9.015625 6.039062 -9.140625 5.53125 -9.140625 L 3.796875 -9.140625 Z M 3.796875 -6.296875 " />
			</g>
		</g>
	</g>
	<g fill="#ffffff" fill-opacity="1">
		<g transform="translate(141.207493, 22.938736)">
			<g>
				<path d="M 6.421875 0.109375 C 5.347656 0.109375 4.363281 -0.140625 3.46875 -0.640625 C 2.570312 -1.140625 1.859375 -1.835938 1.328125 -2.734375 C 0.796875 -3.628906 0.53125 -4.640625 0.53125 -5.765625 C 0.53125 -6.878906 0.796875 -7.878906 1.328125 -8.765625 C 1.859375 -9.660156 2.570312 -10.359375 3.46875 -10.859375 C 4.363281 -11.359375 5.347656 -11.609375 6.421875 -11.609375 C 7.503906 -11.609375 8.492188 -11.359375 9.390625 -10.859375 C 10.285156 -10.359375 10.988281 -9.660156 11.5 -8.765625 C 12.019531 -7.878906 12.28125 -6.878906 12.28125 -5.765625 C 12.28125 -4.640625 12.019531 -3.628906 11.5 -2.734375 C 10.976562 -1.835938 10.269531 -1.140625 9.375 -0.640625 C 8.488281 -0.140625 7.503906 0.109375 6.421875 0.109375 Z M 6.421875 -2.4375 C 7.335938 -2.4375 8.066406 -2.738281 8.609375 -3.34375 C 9.160156 -3.945312 9.4375 -4.753906 9.4375 -5.765625 C 9.4375 -6.773438 9.160156 -7.582031 8.609375 -8.1875 C 8.066406 -8.789062 7.335938 -9.09375 6.421875 -9.09375 C 5.503906 -9.09375 4.769531 -8.789062 4.21875 -8.1875 C 3.664062 -7.59375 3.390625 -6.785156 3.390625 -5.765625 C 3.390625 -4.742188 3.664062 -3.929688 4.21875 -3.328125 C 4.769531 -2.734375 5.503906 -2.4375 6.421875 -2.4375 Z M 6.421875 -2.4375 " />
			</g>
		</g>
	</g>
</svg>
